HIERARCHY
ROOT Hips
{
	OFFSET 0.000000 100.481300 0.000000
	CHANNELS 6 Xposition Yposition Zposition Xrotation Yrotation Zrotation
	JOINT Spine
	{
		OFFSET -0.279200 12.230698 -2.892100
		CHANNELS 3 Xrotation Yrotation Zrotation
		JOINT Spine1
		{
			OFFSET -0.325700 14.269203 -3.374200
			CHANNELS 3 Xrotation Yrotation Zrotation
			JOINT Spine2
			{
				OFFSET -0.372300 16.307602 -0.352600
				CHANNELS 3 Xrotation Yrotation Zrotation
				JOINT Neck
				{
					OFFSET -0.418800 17.814194 8.416900
					CHANNELS 3 Xrotation Yrotation Zrotation
					JOINT Head
					{
						OFFSET 0.000000 7.031097 3.806800
						CHANNELS 3 Xrotation Yrotation Zrotation
						JOINT HeadTop_End
						{
							OFFSET 0.000000 24.646606 12.978600
							CHANNELS 3 Xrotation Yrotation Zrotation
							End Site
							{
								OFFSET 0.000000 27.854965 0.000000
							}
						}
					}
				}
				JOINT LeftShoulder
				{
					OFFSET 16.952999 14.495407 -7.737500
					CHANNELS 3 Xrotation Yrotation Zrotation
					JOINT LeftArm
					{
						OFFSET 9.308998 -2.777710 0.208600
						CHANNELS 3 Xrotation Yrotation Zrotation
						JOINT LeftForeArm
						{
							OFFSET 29.972298 0.000000 0.000000
							CHANNELS 3 Xrotation Yrotation Zrotation
							JOINT LeftHand
							{
								OFFSET 26.026505 0.000000 0.000000
								CHANNELS 3 Xrotation Yrotation Zrotation
								JOINT LeftHandThumb1
								{
									OFFSET 12.240501 -7.147949 9.207150
									CHANNELS 3 Xrotation Yrotation Zrotation
									JOINT LeftHandThumb2
									{
										OFFSET 4.138618 -2.389435 2.389433
										CHANNELS 3 Xrotation Yrotation Zrotation
										JOINT LeftHandThumb3
										{
											OFFSET 2.726913 -1.574387 1.574386
											CHANNELS 3 Xrotation Yrotation Zrotation
											JOINT LeftHandThumb4
											{
												OFFSET 3.941010 -2.275345 2.275342
												CHANNELS 3 Xrotation Yrotation Zrotation
												End Site
												{
													OFFSET -0.005798 5.087799 0.009903
												}
											}
										}
									}
								}
								JOINT LeftHandIndex1
								{
									OFFSET 24.424698 -1.985611 5.953459
									CHANNELS 3 Xrotation Yrotation Zrotation
									JOINT LeftHandIndex2
									{
										OFFSET 6.426697 0.000000 0.000000
										CHANNELS 3 Xrotation Yrotation Zrotation
										JOINT LeftHandIndex3
										{
											OFFSET 5.337898 0.000000 0.000000
											CHANNELS 3 Xrotation Yrotation Zrotation
											JOINT LeftHandIndex4
											{
												OFFSET 4.409401 0.000000 0.000000
												CHANNELS 3 Xrotation Yrotation Zrotation
												End Site
												{
													OFFSET 0.000000 4.409363 0.014373
												}
											}
										}
									}
								}
								JOINT LeftHandMiddle1
								{
									OFFSET 23.810104 0.000000 0.000000
									CHANNELS 3 Xrotation Yrotation Zrotation
									JOINT LeftHandMiddle2
									{
										OFFSET 7.176498 0.000000 0.000000
										CHANNELS 3 Xrotation Yrotation Zrotation
										JOINT LeftHandMiddle3
										{
											OFFSET 6.774902 0.000000 0.000000
											CHANNELS 3 Xrotation Yrotation Zrotation
											JOINT LeftHandMiddle4
											{
												OFFSET 5.403328 0.000000 0.000000
												CHANNELS 3 Xrotation Yrotation Zrotation
												End Site
												{
													OFFSET -0.027702 5.403244 0.017414
												}
											}
										}
									}
								}
								JOINT LeftHandRing1
								{
									OFFSET 22.908401 -0.839279 -6.020567
									CHANNELS 3 Xrotation Yrotation Zrotation
									JOINT LeftHandRing2
									{
										OFFSET 6.337502 0.000000 0.000000
										CHANNELS 3 Xrotation Yrotation Zrotation
										JOINT LeftHandRing3
										{
											OFFSET 5.779297 0.000000 0.000000
											CHANNELS 3 Xrotation Yrotation Zrotation
											JOINT LeftHandRing4
											{
												OFFSET 4.965698 0.000000 0.000000
												CHANNELS 3 Xrotation Yrotation Zrotation
												End Site
												{
													OFFSET 0.000000 4.965668 0.016186
												}
											}
										}
									}
								}
								JOINT LeftHandPinky1
								{
									OFFSET 20.037003 -1.530319 -10.950146
									CHANNELS 3 Xrotation Yrotation Zrotation
									JOINT LeftHandPinky2
									{
										OFFSET 5.254700 0.000000 0.000000
										CHANNELS 3 Xrotation Yrotation Zrotation
										JOINT LeftHandPinky3
										{
											OFFSET 4.810204 0.000000 0.000000
											CHANNELS 3 Xrotation Yrotation Zrotation
											JOINT LeftHandPinky4
											{
												OFFSET 3.647202 0.000000 0.000000
												CHANNELS 3 Xrotation Yrotation Zrotation
												End Site
												{
													OFFSET 0.000000 3.647186 0.011889
												}
											}
										}
									}
								}
							}
						}
					}
				}
				JOINT RightShoulder
				{
					OFFSET -15.141001 14.495407 -7.737500
					CHANNELS 3 Xrotation Yrotation Zrotation
					JOINT RightArm
					{
						OFFSET -9.308998 -2.777710 0.208500
						CHANNELS 3 Xrotation Yrotation Zrotation
						JOINT RightForeArm
						{
							OFFSET -29.972300 0.000000 0.000000
							CHANNELS 3 Xrotation Yrotation Zrotation
							JOINT RightHand
							{
								OFFSET -26.026505 0.000000 0.000000
								CHANNELS 3 Xrotation Yrotation Zrotation
								JOINT RightHandThumb1
								{
									OFFSET -12.240601 -7.148026 9.207092
									CHANNELS 3 Xrotation Yrotation Zrotation
									JOINT RightHandThumb2
									{
										OFFSET -4.138618 -2.389435 2.389433
										CHANNELS 3 Xrotation Yrotation Zrotation
										JOINT RightHandThumb3
										{
											OFFSET -2.726974 -1.574417 1.574421
											CHANNELS 3 Xrotation Yrotation Zrotation
											JOINT RightHandThumb4
											{
												OFFSET -3.941010 -2.275345 2.275343
												CHANNELS 3 Xrotation Yrotation Zrotation
												End Site
												{
													OFFSET 0.005814 5.087799 0.009927
												}
											}
										}
									}
								}
								JOINT RightHandIndex1
								{
									OFFSET -24.424698 -1.985657 5.953444
									CHANNELS 3 Xrotation Yrotation Zrotation
									JOINT RightHandIndex2
									{
										OFFSET -6.426697 0.000000 0.000000
										CHANNELS 3 Xrotation Yrotation Zrotation
										JOINT RightHandIndex3
										{
											OFFSET -5.337898 0.000000 0.000000
											CHANNELS 3 Xrotation Yrotation Zrotation
											JOINT RightHandIndex4
											{
												OFFSET -4.409401 0.000000 0.000000
												CHANNELS 3 Xrotation Yrotation Zrotation
												End Site
												{
													OFFSET 0.000000 4.409363 0.014408
												}
											}
										}
									}
								}
								JOINT RightHandMiddle1
								{
									OFFSET -23.810097 0.000000 0.000000
									CHANNELS 3 Xrotation Yrotation Zrotation
									JOINT RightHandMiddle2
									{
										OFFSET -7.176498 0.000000 0.000000
										CHANNELS 3 Xrotation Yrotation Zrotation
										JOINT RightHandMiddle3
										{
											OFFSET -6.774902 0.000000 0.000000
											CHANNELS 3 Xrotation Yrotation Zrotation
											JOINT RightHandMiddle4
											{
												OFFSET -5.403328 0.000000 0.000000
												CHANNELS 3 Xrotation Yrotation Zrotation
												End Site
												{
													OFFSET 0.027702 5.403244 0.017457
												}
											}
										}
									}
								}
								JOINT RightHandRing1
								{
									OFFSET -22.908302 -0.839325 -6.020576
									CHANNELS 3 Xrotation Yrotation Zrotation
									JOINT RightHandRing2
									{
										OFFSET -6.337502 0.000000 0.000000
										CHANNELS 3 Xrotation Yrotation Zrotation
										JOINT RightHandRing3
										{
											OFFSET -5.779297 0.000000 0.000000
											CHANNELS 3 Xrotation Yrotation Zrotation
											JOINT RightHandRing4
											{
												OFFSET -4.965698 0.000000 0.000000
												CHANNELS 3 Xrotation Yrotation Zrotation
												End Site
												{
													OFFSET 0.000000 4.965668 0.016226
												}
											}
										}
									}
								}
								JOINT RightHandPinky1
								{
									OFFSET -20.037003 -1.530334 -10.950259
									CHANNELS 3 Xrotation Yrotation Zrotation
									JOINT RightHandPinky2
									{
										OFFSET -5.254700 0.000000 0.000000
										CHANNELS 3 Xrotation Yrotation Zrotation
										JOINT RightHandPinky3
										{
											OFFSET -4.810204 0.000000 0.000000
											CHANNELS 3 Xrotation Yrotation Zrotation
											JOINT RightHandPinky4
											{
												OFFSET -3.647202 0.000000 0.000000
												CHANNELS 3 Xrotation Yrotation Zrotation
												End Site
												{
													OFFSET 0.000000 3.647186 0.011917
												}
											}
										}
									}
								}
							}
						}
					}
				}
			}
		}
	}
	JOINT LeftUpLeg
	{
		OFFSET 15.427100 -6.655098 0.678600
		CHANNELS 3 Xrotation Yrotation Zrotation
		JOINT LeftLeg
		{
			OFFSET 4.081073 -39.591068 13.024000
			CHANNELS 3 Xrotation Yrotation Zrotation
			JOINT LeftFoot
			{
				OFFSET -4.081074 -37.707932 -15.979700
				CHANNELS 3 Xrotation Yrotation Zrotation
				JOINT LeftToeBase
				{
					OFFSET 5.346399 -15.068900 20.645000
					CHANNELS 3 Xrotation Yrotation Zrotation
					JOINT LeftToe_End
					{
						OFFSET 2.754700 0.931300 11.300900
						CHANNELS 3 Xrotation Yrotation Zrotation
						End Site
						{
							OFFSET 0.000000 11.669021 0.000000
						}
					}
				}
			}
		}
	}
	JOINT RightUpLeg
	{
		OFFSET -15.569500 -6.655098 0.678600
		CHANNELS 3 Xrotation Yrotation Zrotation
		JOINT RightLeg
		{
			OFFSET -4.081825 -39.591045 13.023800
			CHANNELS 3 Xrotation Yrotation Zrotation
			JOINT RightFoot
			{
				OFFSET 4.081824 -37.707954 -15.979600
				CHANNELS 3 Xrotation Yrotation Zrotation
				JOINT RightToeBase
				{
					OFFSET -5.346400 -15.068900 20.645000
					CHANNELS 3 Xrotation Yrotation Zrotation
					JOINT RightToe_End
					{
						OFFSET -2.754700 0.931300 11.300900
						CHANNELS 3 Xrotation Yrotation Zrotation
						End Site
						{
							OFFSET 0.000000 11.669021 0.000000
						}
					}
				}
			}
		}
	}
}
MOTION
Frames: 4
Frame Time: 0.033333
11.232717 76.261887 15.671595 23.517446 1.767239 -9.616444 4.239299 0.008283 -5.429249 4.096756 0.338860 -3.495528 4.081202 0.564744 -3.495942 0.960455 -5.246959 7.506762 -32.875131 -23.202793 0.372111 -0.000000 0.000001 0.000000 2.350520 -9.997591 3.458692 12.119537 -15.210094 -32.993499 0.000370 -85.428345 0.000359 25.758143 -3.800882 35.196453 -1.540034 3.690204 6.142355 3.939044 7.948711 0.746813 -0.579468 1.574985 2.538709 -0.000002 0.000001 0.000000 0.030201 0.645530 -5.357203 0.030203 0.645534 -5.357200 0.007548 0.323110 -2.678519 -0.000002 -0.000001 -0.000002 0.030021 0.643616 -5.341220 0.030383 0.647457 -5.373186 0.007544 0.323118 -2.678521 0.000004 -0.000001 0.000002 0.030201 0.645530 -5.357203 0.030207 0.645534 -5.357200 0.007555 0.323123 -2.678514 0.000002 0.000002 0.000002 0.391659 4.683725 -4.863589 0.017930 -3.409000 -5.865754 0.007554 0.323121 -2.678514 0.000003 -0.000000 -0.000000 6.665731 19.495397 -19.992174 -50.666176 27.638659 38.686427 -0.000496 85.053313 0.000537 19.550887 5.550365 -7.961387 -1.833969 1.232130 -5.841851 6.457565 -29.915583 -1.510356 -0.344205 -10.474495 -3.184836 -0.000001 -0.000000 0.000000 0.000167 0.048138 -0.395031 0.000000 -0.000001 -0.000000 0.000000 0.000001 -0.000000 0.000000 -0.000001 -0.000000 0.000167 0.048138 -0.395031 0.000000 -0.000001 -0.000000 0.000000 0.000001 -0.000000 -0.000000 -0.000001 -0.000000 0.000166 0.048139 -0.395031 0.000000 -0.000004 -0.000000 0.000000 0.000001 -0.000000 0.000000 -0.000001 -0.000000 0.000167 0.048138 -0.395031 0.000000 -0.000001 -0.000000 -0.000000 -0.000001 -0.000000 0.000000 0.000001 0.000000 -65.173330 -0.495840 33.178498 59.998520 -5.434792 -2.540133 -19.461939 4.278585 -14.999169 -0.000007 0.000001 -0.000004 0.000000 -0.000001 -0.000000 -55.213750 4.363431 -25.406866 40.579493 -1.356468 1.569140 -4.303071 -4.719731 28.493688 0.000001 0.000004 0.000005 -0.000000 0.000001 0.000000 
10.915995 76.721939 14.094688 22.836352 -2.335353 -8.137794 3.622584 0.204610 -5.921525 3.551709 0.592387 -3.657580 3.536274 0.772137 -3.647481 -1.624267 -3.943634 1.662699 -30.397084 -21.346646 4.052803 0.000000 0.000000 0.000000 1.723612 -5.544701 0.647979 8.929306 -16.188341 -36.577449 -0.214343 -89.910425 -0.213801 26.732133 -4.541784 35.348333 -1.540030 3.690205 6.142357 3.939055 7.948714 0.746813 -0.579468 1.574983 2.538709 -0.000001 0.000001 -0.000000 0.030199 0.645530 -5.357202 0.030214 0.645535 -5.357200 0.007550 0.323111 -2.678520 0.000001 -0.000001 -0.000001 0.030020 0.643616 -5.341218 0.030380 0.647457 -5.373185 0.007552 0.323120 -2.678522 0.000000 0.000001 0.000001 0.030199 0.645530 -5.357203 0.030213 0.645534 -5.357200 0.007558 0.323123 -2.678515 0.000003 0.000000 -0.000001 0.391655 4.683725 -4.863590 0.017927 -3.409002 -5.865755 0.007561 0.323122 -2.678516 -0.000001 -0.000002 -0.000000 5.476292 15.332935 -15.427427 -42.064314 25.798352 46.787991 -0.002610 90.805917 0.002664 21.096702 4.227128 -8.869332 -1.833969 1.232127 -5.841852 6.457565 -29.915580 -1.510357 -0.344205 -10.474493 -3.184838 0.000001 0.000002 0.000001 0.005508 -0.277266 2.275804 0.000000 0.000004 0.000007 0.000000 -0.000002 0.000001 0.000000 -0.000000 0.000000 0.005508 -0.277265 2.275804 -0.000000 -0.000003 -0.000001 -0.000001 -0.000002 -0.000001 -0.000001 0.000003 0.000001 0.005508 -0.277266 2.275803 0.000000 -0.000003 0.000034 -0.000002 0.000000 0.000000 -0.000001 0.000000 0.000000 0.005508 -0.277266 2.275804 -0.000002 -0.000003 -0.000001 -0.000001 -0.000004 -0.000001 -0.000002 -0.000000 -0.000000 -63.704546 0.156029 35.030172 59.244084 -4.352300 -2.939203 -18.922091 4.416910 -15.378603 0.000000 0.000004 0.000001 -0.000000 0.000000 -0.000000 -49.894491 1.576100 -25.638414 39.799840 2.203634 1.565766 -11.851185 -7.098430 31.309184 0.000002 0.000004 0.000001 -0.000000 0.000000 -0.000000 
10.270497 76.566628 12.441877 22.571933 -5.489136 -6.647605 3.462083 0.174022 -6.400387 3.326510 0.657929 -3.767771 3.317118 0.793311 -3.755470 -4.924865 -2.828391 -2.335160 -30.044161 -19.478538 5.752261 -0.000000 0.000001 0.000002 1.248242 -2.116245 -2.112369 6.466967 -16.106407 -39.312489 -0.000005 -95.196738 -0.000004 28.153876 -4.616832 35.261446 -1.540040 3.690204 6.142357 3.939052 7.948713 0.746814 -0.579468 1.574984 2.538710 -0.000003 -0.000000 0.000000 0.030197 0.645529 -5.357203 0.030205 0.645533 -5.357201 0.007549 0.323114 -2.678515 0.000001 -0.000000 -0.000001 0.030017 0.643616 -5.341219 0.030386 0.647458 -5.373185 0.007546 0.323121 -2.678519 0.000002 0.000000 0.000000 0.030197 0.645529 -5.357203 0.030205 0.645534 -5.357201 0.007561 0.323125 -2.678517 -0.000002 0.000000 -0.000001 0.391657 4.683725 -4.863590 0.017926 -3.409002 -5.865756 0.007553 0.323122 -2.678514 0.000002 -0.000001 -0.000000 3.856178 10.341916 -9.760898 -32.553375 24.813389 54.596465 -0.000125 95.102721 0.000155 19.809067 2.854711 -9.105769 -1.833966 1.232127 -5.841852 6.457566 -29.915583 -1.510357 -0.344205 -10.474494 -3.184836 -0.000000 -0.000000 -0.000000 0.010386 -0.380587 3.124504 -0.000000 -0.000001 0.000001 -0.000003 0.000001 0.000000 -0.000001 -0.000001 -0.000000 0.010387 -0.380586 3.124502 -0.000002 0.000001 0.000019 0.000003 -0.000003 -0.000004 0.000001 -0.000001 -0.000001 0.010385 -0.380586 3.124503 0.000002 -0.000008 0.000033 0.000001 -0.000003 -0.000002 0.000000 -0.000003 -0.000001 0.010386 -0.380587 3.124504 -0.000001 0.000002 0.000001 -0.000001 0.000004 0.000000 0.000001 0.000003 0.000002 -63.363112 0.354401 36.373244 58.845502 -4.347115 -3.084628 -18.020252 4.615114 -16.276107 -0.000007 -0.000003 -0.000001 -0.000000 -0.000001 -0.000000 -45.863040 -0.700279 -27.018700 39.169448 6.085472 2.780278 -17.694797 -9.819697 35.940018 -0.000008 0.000003 0.000002 -0.000001 0.000002 -0.000001 
9.635479 76.232216 10.823048 22.837619 -8.482987 -4.925060 3.545933 -0.259889 -6.826759 3.299532 0.421310 -3.832638 3.298099 0.515025 -3.825234 -8.352708 -1.833230 -4.612198 -31.398055 -16.945776 6.093886 0.000000 0.000000 -0.000000 0.897056 0.563129 -5.058319 5.500613 -14.722063 -39.319442 0.000168 -100.695204 0.000169 29.552658 -3.616843 36.108089 -1.540031 3.690206 6.142358 3.939050 7.948711 0.746815 -0.579463 1.574984 2.538710 -0.000002 0.000000 -0.000001 0.030201 0.645530 -5.357204 0.030209 0.645532 -5.357203 0.007553 0.323110 -2.678520 0.000000 -0.000000 -0.000000 0.030020 0.643617 -5.341221 0.030381 0.647457 -5.373185 0.007551 0.323121 -2.678521 -0.000004 0.000000 0.000000 0.030201 0.645530 -5.357204 0.030211 0.645534 -5.357201 0.007563 0.323124 -2.678515 0.000001 -0.000000 0.000000 0.391659 4.683725 -4.863591 0.017925 -3.409000 -5.865755 0.007559 0.323122 -2.678514 -0.000000 -0.000002 -0.000002 2.491499 5.879130 -5.963850 -23.840444 25.007426 60.748993 -0.000210 97.017687 0.000205 17.505020 1.395612 -8.779547 -1.833968 1.232129 -5.841848 6.457565 -29.915583 -1.510355 -0.344207 -10.474494 -3.184838 -0.000001 0.000000 0.000000 0.010378 -0.380588 3.124506 0.000002 -0.000003 -0.000000 0.000002 0.000002 0.000000 0.000001 -0.000001 -0.000000 0.010379 -0.380588 3.124508 0.000002 -0.000001 -0.000001 -0.000005 -0.000001 0.000001 -0.000002 -0.000000 0.000000 0.010378 -0.380588 3.124507 -0.000001 -0.000002 -0.000002 -0.000002 -0.000004 -0.000003 0.000001 0.000000 -0.000001 0.010378 -0.380588 3.124508 0.000004 -0.000001 0.000001 0.000001 -0.000000 -0.000002 0.000003 0.000002 0.000001 -63.410855 0.491424 37.322780 58.710933 -3.809916 -3.000515 -17.195416 4.788590 -17.193319 -0.000003 0.000001 0.000002 0.000000 -0.000002 -0.000000 -43.853079 -1.072788 -28.457399 39.184071 9.339309 5.488740 -21.191374 -11.062969 35.819052 -0.000009 -0.000004 0.000005 0.000000 0.000002 0.000001 
